<svg width="41" height="31" viewBox="0 0 41 31" fill="none" xmlns="http://www.w3.org/2000/svg">
<path d="M36.6309 0.0503063C36.3363 0.141483 36.0768 0.348989 35.859 0.669678C35.7533 0.82688 35.5451 1.3142 34.1389 4.72232L33.6232 5.97364H17.1688H0.714299L0.518908 6.0711C0.221018 6.21572 0.051252 6.45153 0.0128145 6.76593C-0.00960734 6.964 0.144143 7.69341 0.275471 7.99838C0.371565 8.22161 0.637424 9.06735 1.92188 13.2363C2.22297 14.2141 2.55289 15.2894 2.6586 15.6258C2.81875 16.1477 3.39531 18.0152 4.24735 20.7725C4.35946 21.1404 4.54524 21.7472 4.66375 22.1213C4.85274 22.7375 4.87196 22.8287 4.88157 23.118C4.89438 23.6053 5.03211 23.8411 5.35563 23.9291C5.50297 23.9668 7.84766 23.9731 8.14875 23.9354C8.26407 23.9228 8.2993 23.926 8.28328 23.9543C8.27047 23.9731 8.24485 23.9889 8.22563 23.9889C8.20641 23.9889 8.08789 24.0329 7.96297 24.0895C7.17821 24.4353 6.47032 25.1364 6.13399 25.9004C5.51258 27.3058 5.81367 28.9155 6.89633 29.9688C8.87907 31.8961 12.1495 30.978 12.867 28.2993C12.9759 27.8937 13.0047 27.1895 12.9278 26.7587C12.8029 26.0513 12.4602 25.3879 11.9509 24.8566C11.6113 24.5045 11.0412 24.1429 10.5863 23.9889L10.4262 23.9354L11.275 23.9134C12.1014 23.8945 16.7684 23.8474 21.1406 23.8159C22.329 23.8065 23.3668 23.7908 23.4469 23.7845C23.6391 23.7688 23.527 23.8128 23.2547 23.8631C22.6269 23.9763 21.8645 24.3944 21.4193 24.866C20.737 25.5954 20.4039 26.416 20.4039 27.3781C20.4039 28.3716 20.737 29.2016 21.4097 29.8933C21.9254 30.4215 22.4923 30.7422 23.1906 30.9025C25.1317 31.3521 27.0824 30.0914 27.4988 28.1264C27.7455 26.9474 27.3675 25.6803 26.5155 24.8409C25.9293 24.2624 25.3015 23.948 24.4719 23.8191C24.2669 23.7876 24.5327 23.7782 26.3457 23.7562C27.7199 23.7436 28.5014 23.7216 28.5783 23.6996C28.6456 23.6807 28.7192 23.6336 28.7449 23.599C28.7705 23.5613 28.8666 23.4544 28.9627 23.36C29.11 23.2091 29.1677 23.1054 29.4111 22.574C29.5616 22.2376 29.8531 21.5994 30.0549 21.1592C30.8237 19.4772 31.2817 18.4774 31.6149 17.748C31.8038 17.333 32.9217 14.8932 34.0973 12.3246C35.276 9.75589 36.2562 7.5928 36.2786 7.5142C36.2978 7.4356 36.6149 6.72191 36.9801 5.92648C37.3452 5.13104 37.672 4.42049 37.704 4.34818L37.7617 4.21299L38.3638 4.83864C38.6938 5.18134 39.0237 5.53033 39.0909 5.61207C39.3984 5.97364 40.0134 6.03337 40.3145 5.7284C40.6509 5.38571 41.0641 4.05264 40.9872 3.5496C40.968 3.41755 40.9391 3.38297 40.6701 3.13773C40.5067 2.98996 40.2216 2.68185 40.0391 2.45234C38.8956 1.0281 38.7066 0.82688 38.2421 0.518766C37.5438 0.0597401 37.0666 -0.078598 36.6309 0.0503063ZM31.6917 10.0986C31.4163 10.762 31.1696 11.3562 31.144 11.4254L31.0927 11.5448L30.9294 11.526C30.8397 11.5165 24.8755 11.5071 17.6781 11.5071H4.58688L4.52282 11.2619C4.18969 10.0326 3.90781 8.9636 3.90781 8.93216C3.90781 8.907 7.46649 8.89757 18.0464 8.89757H32.1882L31.6917 10.0986ZM29.8724 14.4845C29.8595 14.5159 29.6898 14.9341 29.4944 15.412L29.1356 16.286H17.5051H5.87453L5.64071 15.412C5.51258 14.9341 5.40047 14.5159 5.39407 14.4845C5.37805 14.4342 5.97703 14.431 17.6332 14.431C29.2958 14.431 29.8916 14.4342 29.8724 14.4845ZM27.5565 20.0966C27.3547 20.587 27.1817 21.0052 27.1721 21.024C27.1593 21.0555 25.1285 21.0649 17.1688 21.0649C11.07 21.0649 7.1718 21.0523 7.15899 21.0366C7.14297 21.0083 6.6625 19.2571 6.6625 19.2225C6.6625 19.2162 11.448 19.2099 17.2937 19.2099H27.9249L27.5565 20.0966Z" fill="white"/>
</svg>
