<svg width="113" height="36" viewBox="0 0 113 36" fill="none" xmlns="http://www.w3.org/2000/svg">
<path d="M2.6385 28.6546C2.44773 28.8542 2.45492 29.1707 2.65457 29.3615L5.90803 32.4704C6.10767 32.6611 6.42417 32.6539 6.61495 32.4543C6.80572 32.2546 6.79853 31.9381 6.59889 31.7474L3.70692 28.9839L6.47035 26.092C6.66113 25.8923 6.65393 25.5758 6.45429 25.385C6.25463 25.1943 5.93813 25.2015 5.74736 25.4011L2.6385 28.6546ZM90.9886 26.5001L2.98863 28.5001L3.01136 29.4999L91.0114 27.4999L90.9886 26.5001Z" fill="white"/>
<path d="M112.367 13.3391C112.555 13.1362 112.542 12.8199 112.339 12.6326L109.033 9.58034C108.83 9.39304 108.513 9.40569 108.326 9.6086C108.139 9.81151 108.151 10.1278 108.354 10.3151L111.293 13.0283L108.58 15.9675C108.393 16.1704 108.406 16.4867 108.609 16.674C108.812 16.8613 109.128 16.8487 109.315 16.6458L112.367 13.3391ZM12.02 17.4996L112.02 13.4996L111.98 12.5004L11.98 16.5004L12.02 17.4996Z" fill="white"/>
<ellipse cx="38.5" cy="12.5" rx="38.5" ry="12.5" fill="#164EB9"/>
<ellipse cx="70.5" cy="27" rx="29.5" ry="9" fill="#54EACF"/>
<path d="M30.984 6.4C32.088 6.4 32.922 6.67 33.486 7.21C34.062 7.75 34.35 8.536 34.35 9.568C34.35 10.108 34.218 10.6 33.954 11.044C33.702 11.476 33.324 11.818 32.82 12.07C32.328 12.322 31.71 12.454 30.966 12.466L31.002 11.8C31.398 11.8 31.824 11.854 32.28 11.962C32.748 12.07 33.186 12.256 33.594 12.52C34.002 12.784 34.338 13.144 34.602 13.6C34.866 14.044 34.998 14.602 34.998 15.274C34.998 16.006 34.878 16.618 34.638 17.11C34.398 17.59 34.08 17.968 33.684 18.244C33.288 18.52 32.85 18.718 32.37 18.838C31.902 18.946 31.44 19 30.984 19H26.376C26.124 19 25.908 18.916 25.728 18.748C25.548 18.568 25.458 18.346 25.458 18.082V7.318C25.458 7.054 25.548 6.838 25.728 6.67C25.908 6.49 26.124 6.4 26.376 6.4H30.984ZM30.732 8.164H27.186L27.402 7.876V11.746L27.204 11.548H30.768C31.2 11.536 31.578 11.392 31.902 11.116C32.238 10.828 32.406 10.408 32.406 9.856C32.406 9.292 32.256 8.872 31.956 8.596C31.656 8.308 31.248 8.164 30.732 8.164ZM30.858 13.312H27.276L27.402 13.186V17.434L27.258 17.272H30.966C31.59 17.272 32.094 17.11 32.478 16.786C32.862 16.45 33.054 15.946 33.054 15.274C33.054 14.71 32.94 14.29 32.712 14.014C32.484 13.738 32.202 13.552 31.866 13.456C31.53 13.36 31.194 13.312 30.858 13.312ZM43.8233 9.532C44.0753 9.532 44.2853 9.622 44.4533 9.802C44.6333 9.97 44.7233 10.186 44.7233 10.45V15.184C44.7233 16.432 44.3753 17.41 43.6793 18.118C42.9833 18.814 41.9993 19.162 40.7273 19.162C39.4673 19.162 38.4893 18.814 37.7933 18.118C37.1093 17.41 36.7673 16.432 36.7673 15.184V10.45C36.7673 10.186 36.8513 9.97 37.0193 9.802C37.1873 9.622 37.4033 9.532 37.6673 9.532C37.9193 9.532 38.1293 9.622 38.2973 9.802C38.4773 9.97 38.5673 10.186 38.5673 10.45V15.184C38.5673 15.964 38.7473 16.546 39.1073 16.93C39.4793 17.314 40.0193 17.506 40.7273 17.506C41.4473 17.506 41.9933 17.314 42.3653 16.93C42.7373 16.546 42.9233 15.964 42.9233 15.184V10.45C42.9233 10.186 43.0073 9.97 43.1753 9.802C43.3433 9.622 43.5593 9.532 43.8233 9.532ZM53.9943 9.46C54.2583 9.46 54.4743 9.55 54.6423 9.73C54.8103 9.898 54.8943 10.114 54.8943 10.378V18.118C54.8943 19.174 54.6903 20.032 54.2823 20.692C53.8863 21.352 53.3463 21.832 52.6623 22.132C51.9903 22.444 51.2283 22.6 50.3763 22.6C49.9443 22.6 49.5123 22.558 49.0803 22.474C48.6483 22.402 48.2943 22.294 48.0183 22.15C47.7303 22.018 47.5263 21.856 47.4063 21.664C47.2863 21.472 47.2683 21.262 47.3523 21.034C47.4363 20.746 47.5803 20.548 47.7843 20.44C47.9883 20.344 48.1983 20.338 48.4143 20.422C48.6183 20.506 48.8883 20.614 49.2243 20.746C49.5603 20.878 49.9443 20.944 50.3763 20.944C50.9643 20.944 51.4623 20.848 51.8703 20.656C52.2783 20.464 52.5843 20.164 52.7883 19.756C53.0043 19.348 53.1123 18.82 53.1123 18.172V16.93L53.4003 17.362C53.2083 17.758 52.9563 18.088 52.6443 18.352C52.3323 18.616 51.9603 18.82 51.5283 18.964C51.1083 19.108 50.6403 19.18 50.1243 19.18C49.4643 19.18 48.8943 19.036 48.4143 18.748C47.9463 18.448 47.5863 18.04 47.3343 17.524C47.0823 16.996 46.9563 16.396 46.9563 15.724V10.378C46.9563 10.114 47.0403 9.898 47.2083 9.73C47.3763 9.55 47.5923 9.46 47.8563 9.46C48.1083 9.46 48.3183 9.55 48.4863 9.73C48.6663 9.898 48.7563 10.114 48.7563 10.378V15.238C48.7563 16.03 48.9303 16.612 49.2783 16.984C49.6263 17.344 50.1423 17.524 50.8263 17.524C51.2823 17.524 51.6783 17.428 52.0143 17.236C52.3503 17.044 52.6143 16.78 52.8063 16.444C52.9983 16.096 53.0943 15.694 53.0943 15.238V10.378C53.0943 10.114 53.1783 9.898 53.3463 9.73C53.5263 9.55 53.7423 9.46 53.9943 9.46ZM63.1904 21.37C64.0784 21.37 64.7624 21.592 65.2424 22.036C65.7224 22.468 66.0404 23.056 66.1964 23.8L65.9084 23.71L66.0344 23.422C66.1904 23.11 66.4244 22.798 66.7364 22.486C67.0604 22.162 67.4444 21.898 67.8884 21.694C68.3324 21.478 68.8064 21.37 69.3104 21.37C70.1384 21.37 70.7804 21.55 71.2364 21.91C71.6924 22.258 72.0104 22.732 72.1904 23.332C72.3704 23.92 72.4604 24.58 72.4604 25.312V30.082C72.4604 30.346 72.3764 30.568 72.2084 30.748C72.0404 30.916 71.8244 31 71.5604 31C71.3084 31 71.0924 30.916 70.9124 30.748C70.7444 30.568 70.6604 30.346 70.6604 30.082V25.33C70.6604 24.91 70.6004 24.526 70.4804 24.178C70.3724 23.83 70.1744 23.554 69.8864 23.35C69.6104 23.134 69.2264 23.026 68.7344 23.026C68.2664 23.026 67.8464 23.134 67.4744 23.35C67.1144 23.554 66.8324 23.83 66.6284 24.178C66.4244 24.526 66.3224 24.91 66.3224 25.33V30.082C66.3224 30.346 66.2384 30.568 66.0704 30.748C65.9024 30.916 65.6864 31 65.4224 31C65.1584 31 64.9424 30.916 64.7744 30.748C64.6064 30.568 64.5224 30.346 64.5224 30.082V25.312C64.5224 24.892 64.4624 24.508 64.3424 24.16C64.2344 23.812 64.0424 23.536 63.7664 23.332C63.4904 23.128 63.1064 23.026 62.6144 23.026C62.1464 23.026 61.7324 23.128 61.3724 23.332C61.0124 23.536 60.7304 23.812 60.5264 24.16C60.3344 24.508 60.2384 24.892 60.2384 25.312V30.082C60.2384 30.346 60.1484 30.568 59.9684 30.748C59.8004 30.916 59.5904 31 59.3384 31C59.0744 31 58.8584 30.916 58.6904 30.748C58.5224 30.568 58.4384 30.346 58.4384 30.082V22.45C58.4384 22.186 58.5224 21.97 58.6904 21.802C58.8584 21.622 59.0744 21.532 59.3384 21.532C59.5904 21.532 59.8004 21.622 59.9684 21.802C60.1484 21.97 60.2384 22.186 60.2384 22.45V23.512L59.8964 23.71C59.9804 23.446 60.1184 23.176 60.3104 22.9C60.5024 22.624 60.7424 22.372 61.0304 22.144C61.3304 21.916 61.6604 21.73 62.0204 21.586C62.3804 21.442 62.7704 21.37 63.1904 21.37ZM79.1194 31.18C78.1234 31.18 77.2594 30.976 76.5274 30.568C75.7954 30.148 75.2254 29.578 74.8174 28.858C74.4214 28.126 74.2234 27.292 74.2234 26.356C74.2234 25.3 74.4334 24.4 74.8534 23.656C75.2854 22.9 75.8434 22.324 76.5274 21.928C77.2114 21.52 77.9374 21.316 78.7054 21.316C79.2934 21.316 79.8514 21.436 80.3794 21.676C80.9074 21.904 81.3754 22.228 81.7834 22.648C82.2034 23.056 82.5334 23.542 82.7734 24.106C83.0134 24.658 83.1394 25.264 83.1514 25.924C83.1394 26.164 83.0434 26.362 82.8634 26.518C82.6834 26.674 82.4734 26.752 82.2334 26.752H75.2314L74.7994 25.222H81.5674L81.2254 25.546V25.096C81.2014 24.676 81.0634 24.31 80.8114 23.998C80.5594 23.674 80.2474 23.428 79.8754 23.26C79.5034 23.08 79.1134 22.99 78.7054 22.99C78.3454 22.99 77.9974 23.05 77.6614 23.17C77.3374 23.278 77.0434 23.458 76.7794 23.71C76.5274 23.962 76.3234 24.298 76.1674 24.718C76.0234 25.126 75.9514 25.636 75.9514 26.248C75.9514 26.908 76.0894 27.484 76.3654 27.976C76.6414 28.468 77.0134 28.852 77.4814 29.128C77.9494 29.392 78.4654 29.524 79.0294 29.524C79.4734 29.524 79.8394 29.482 80.1274 29.398C80.4154 29.302 80.6554 29.188 80.8474 29.056C81.0394 28.924 81.2074 28.798 81.3514 28.678C81.5314 28.57 81.7114 28.516 81.8914 28.516C82.1074 28.516 82.2874 28.594 82.4314 28.75C82.5754 28.894 82.6474 29.068 82.6474 29.272C82.6474 29.536 82.5154 29.776 82.2514 29.992C81.9274 30.304 81.4774 30.58 80.9014 30.82C80.3374 31.06 79.7434 31.18 79.1194 31.18Z" fill="white"/>
</svg>
