<svg width="46" height="15" viewBox="0 0 46 15" fill="none" xmlns="http://www.w3.org/2000/svg">
<path d="M2.8 0.559999L5.6 0.5C5.70667 0.5 5.76 0.613333 5.76 0.839999C5.76 1.06667 5.70667 1.18 5.6 1.18H4.74C4.40667 1.18 4.18667 1.24667 4.08 1.38C3.97333 1.5 3.92 1.74 3.92 2.1V13.2H5.08C7.2 13.2 8.66667 12.92 9.48 12.36L9.62 11.26C9.64667 11.1533 9.76 11.1 9.96 11.1C10.1733 11.1 10.28 11.14 10.28 11.22L10.1 14.44C10.1 14.5333 9.99333 14.58 9.78 14.58C9.58 14.58 9.48 14.5333 9.48 14.44V14H2.98L0.18 14.04C0.0733334 14.04 0.0200001 13.9267 0.0200001 13.7C0.0200001 13.4733 0.0733334 13.36 0.18 13.36H1.04C1.37333 13.36 1.59333 13.3 1.7 13.18C1.80667 13.0467 1.86 12.8 1.86 12.44V2.96C1.86 1.78667 1.72 1.2 1.44 1.2H0.28C0.173333 1.2 0.12 1.09333 0.12 0.88C0.12 0.653333 0.173333 0.539999 0.28 0.539999C0.28 0.539999 1.12 0.546666 2.8 0.559999ZM12.903 5.62C13.983 4.62 15.2363 4.12 16.663 4.12C18.0896 4.12 19.3363 4.62 20.403 5.62C21.483 6.62 22.023 7.80667 22.023 9.18C22.023 10.54 21.483 11.7267 20.403 12.74C19.3363 13.7533 18.0896 14.26 16.663 14.26C15.2363 14.26 13.983 13.7533 12.903 12.74C11.8363 11.7267 11.303 10.54 11.303 9.18C11.303 7.80667 11.8363 6.62 12.903 5.62ZM19.083 6.1C18.4563 5.26 17.6496 4.84 16.663 4.84C15.6763 4.84 14.8696 5.26 14.243 6.1C13.6163 6.92667 13.303 7.95333 13.303 9.18C13.303 10.3933 13.6163 11.4267 14.243 12.28C14.8696 13.12 15.6763 13.54 16.663 13.54C17.6496 13.54 18.4563 13.12 19.083 12.28C19.7096 11.4267 20.023 10.3933 20.023 9.18C20.023 7.95333 19.7096 6.92667 19.083 6.1ZM31.9491 9.82L34.0091 9.78C34.1024 9.78 34.1491 9.88 34.1491 10.08C34.1491 10.28 34.1024 10.38 34.0091 10.38H33.5691C33.3291 10.38 33.1624 10.4267 33.0691 10.52C32.9891 10.6133 32.9491 10.7867 32.9491 11.04C32.9491 12.5067 32.9824 13.4467 33.0491 13.86C33.1291 14.2733 33.1691 14.5067 33.1691 14.56C33.1691 14.68 33.1024 14.74 32.9691 14.74C32.8624 14.74 32.7357 14.5533 32.5891 14.18C32.4557 13.82 32.3291 13.64 32.2091 13.64C32.1824 13.64 32.0291 13.6933 31.7491 13.8C30.9491 14.1067 30.1757 14.26 29.4291 14.26C27.7357 14.26 26.3357 13.8467 25.2291 13.02C24.1357 12.1933 23.5891 10.9867 23.5891 9.4C23.5891 7.81333 24.1757 6.54 25.3491 5.58C26.5357 4.60667 27.9491 4.12 29.5891 4.12C30.3091 4.12 31.0957 4.3 31.9491 4.66V4.34C31.9491 4.23333 32.0357 4.18 32.2091 4.18C32.3824 4.18 32.4691 4.23333 32.4691 4.34C32.4691 5.16667 32.5157 5.9 32.6091 6.54C32.6224 6.58 32.5957 6.62 32.5291 6.66C32.4757 6.68667 32.3891 6.7 32.2691 6.7C32.1491 6.7 32.0757 6.65333 32.0491 6.56L31.9491 5.92C31.1624 5.21333 30.2624 4.86 29.2491 4.86C28.2491 4.86 27.3891 5.24667 26.6691 6.02C25.9624 6.79333 25.6091 7.83333 25.6091 9.14C25.6091 10.4467 25.9691 11.5067 26.6891 12.32C27.4091 13.1333 28.3157 13.54 29.4091 13.54C29.7557 13.54 30.0824 13.5 30.3891 13.42C30.6957 13.3267 30.9157 13.2333 31.0491 13.14L31.2491 13V11.66C31.2491 10.8067 31.1491 10.38 30.9491 10.38H29.4091C29.3157 10.38 29.2691 10.2867 29.2691 10.1C29.2691 9.9 29.3157 9.8 29.4091 9.8L31.9491 9.82ZM36.8678 5.62C37.9478 4.62 39.2011 4.12 40.6278 4.12C42.0545 4.12 43.3011 4.62 44.3678 5.62C45.4478 6.62 45.9878 7.80667 45.9878 9.18C45.9878 10.54 45.4478 11.7267 44.3678 12.74C43.3011 13.7533 42.0545 14.26 40.6278 14.26C39.2011 14.26 37.9478 13.7533 36.8678 12.74C35.8011 11.7267 35.2678 10.54 35.2678 9.18C35.2678 7.80667 35.8011 6.62 36.8678 5.62ZM43.0478 6.1C42.4211 5.26 41.6145 4.84 40.6278 4.84C39.6411 4.84 38.8345 5.26 38.2078 6.1C37.5811 6.92667 37.2678 7.95333 37.2678 9.18C37.2678 10.3933 37.5811 11.4267 38.2078 12.28C38.8345 13.12 39.6411 13.54 40.6278 13.54C41.6145 13.54 42.4211 13.12 43.0478 12.28C43.6745 11.4267 43.9878 10.3933 43.9878 9.18C43.9878 7.95333 43.6745 6.92667 43.0478 6.1Z" fill="#010101"/>
</svg>
